<svg width="24" height="24" viewBox="0 0 24 24" fill="none" xmlns="http://www.w3.org/2000/svg">
<g id="entypo:bell">
<path id="Vector" d="M17.5804 10.2145C14.8444 4.32606 13.4212 2.08926 8.95122 2.18286C7.35882 2.21526 7.74042 1.02846 6.52602 1.47846C5.31402 1.92846 6.35442 2.58726 5.11362 3.60606C1.63122 6.46566 1.95162 9.11046 3.56682 15.4141C4.24722 18.0697 1.92642 18.1993 2.84442 20.7721C3.51522 22.6489 8.45922 23.4349 13.6744 21.5005C18.8908 19.5649 22.1776 15.7237 21.5068 13.8469C20.5888 11.2729 18.7336 12.6937 17.5804 10.2145ZM13.1092 19.9141C8.45082 21.6421 4.62282 20.6269 4.46082 20.1745C4.18242 19.3945 5.96442 16.7953 11.29 14.8189C16.6156 12.8425 19.588 13.5757 19.8988 14.4457C20.0824 14.9605 17.7688 18.1849 13.1092 19.9141ZM11.6116 15.7213C9.17682 16.6249 7.48482 17.6581 6.38802 18.5881C7.15962 19.2889 8.60442 19.4593 10.0432 18.9253C11.8756 18.2473 13.0024 16.6861 12.5572 15.4405L12.538 15.3973C12.2368 15.4957 11.9284 15.6025 11.6116 15.7213Z" fill="#150000"/>
<path id="Vector_2" d="M11.6113 15.7215C9.1765 16.6251 7.4845 17.6583 6.3877 18.5883C7.1593 19.2891 8.6041 19.4595 10.0429 18.9255C11.8753 18.2475 13.0021 16.6863 12.5569 15.4407L12.5377 15.3975C12.2365 15.4959 11.9281 15.6027 11.6113 15.7215Z" fill="#150000"/>
</g>
</svg>
