<svg width="25" height="24" viewBox="0 0 25 24" fill="none" xmlns="http://www.w3.org/2000/svg">
<g id="ion:newspaper-outline">
<path id="Vector" d="M17.5835 19.4934V3.375C17.5826 3.0769 17.4638 2.79125 17.253 2.58046C17.0422 2.36967 16.7566 2.25087 16.4585 2.25H3.7085C3.41039 2.25087 3.12475 2.36967 2.91396 2.58046C2.70317 2.79125 2.58436 3.0769 2.5835 3.375V19.875C2.58498 20.3718 2.783 20.8479 3.13431 21.1992C3.48562 21.5505 3.96167 21.7485 4.4585 21.75H19.8335" stroke="#150000" stroke-width="1.5" stroke-linejoin="round"/>
<path id="Vector_2" d="M19.8335 21.75C19.2368 21.75 18.6645 21.5129 18.2425 21.091C17.8205 20.669 17.5835 20.0967 17.5835 19.5V6H20.9585C21.2569 6 21.543 6.11853 21.754 6.3295C21.965 6.54048 22.0835 6.82663 22.0835 7.125V19.5C22.0835 20.0967 21.8464 20.669 21.4245 21.091C21.0025 21.5129 20.4302 21.75 19.8335 21.75Z" stroke="#150000" stroke-width="1.5" stroke-linejoin="round"/>
<path id="Vector_3" d="M11.5835 6H14.5835M11.5835 9H14.5835M5.5835 12H14.5835M5.5835 15H14.5835M5.5835 18H14.5835" stroke="#150000" stroke-width="1.5" stroke-linecap="round" stroke-linejoin="round"/>
<path id="Vector_4" d="M8.5835 9.75H5.5835C5.38458 9.75 5.19382 9.67098 5.05317 9.53033C4.91251 9.38968 4.8335 9.19891 4.8335 9V6C4.8335 5.80109 4.91251 5.61032 5.05317 5.46967C5.19382 5.32902 5.38458 5.25 5.5835 5.25H8.5835C8.78241 5.25 8.97317 5.32902 9.11383 5.46967C9.25448 5.61032 9.3335 5.80109 9.3335 6V9C9.3335 9.19891 9.25448 9.38968 9.11383 9.53033C8.97317 9.67098 8.78241 9.75 8.5835 9.75Z" fill="#150000"/>
</g>
</svg>
