<svg width="25" height="24" viewBox="0 0 25 24" fill="none" xmlns="http://www.w3.org/2000/svg">
<g id="mdi:clipboard-play-multiple-outline">
<path id="Vector" d="M4.6665 7V21H18.6665V23H4.6665C3.5665 23 2.6665 22.1 2.6665 21V7H4.6665ZM20.6665 3C21.7665 3 22.6665 3.9 22.6665 5V17C22.6665 18.1 21.7665 19 20.6665 19H8.6665C7.5665 19 6.6665 18.1 6.6665 17V5C6.6665 3.9 7.5665 3 8.6665 3H11.8665C12.2665 1.8 13.3665 1 14.6665 1C15.9665 1 17.0665 1.8 17.4665 3H20.6665ZM14.6665 3C14.0665 3 13.6665 3.5 13.6665 4C13.6665 4.5 14.0665 5 14.6665 5C15.2665 5 15.6665 4.6 15.6665 4C15.6665 3.4 15.2665 3 14.6665 3ZM10.6665 7V5H8.6665V17H20.6665V5H18.6665V7M12.6665 15V9L17.6665 12" fill="#150000"/>
</g>
</svg>
