<svg width="28" height="24" viewBox="0 0 28 24" fill="none" xmlns="http://www.w3.org/2000/svg">
<g id="Frame 1">
<path id="Vector 1" d="M1.68447 16.2102L8.42131 6.10498H18.316L13.2634 11.5787L10.7371 12.2102H12.6318H19.1582L0.631836 23.7892L6.94763 15.3681L1.68447 16.2102Z" fill="#FAFAFA"/>
<path id="Vector 2" d="M0 0.210449L18.3158 6.10519L9.05263 9.05255L0 0.210449Z" fill="#FAFAFA"/>
<path id="Vector 3" d="M14.9473 11.1579L19.5788 6.52637L27.1578 9.47374L14.9473 11.1579Z" fill="#FAFAFA"/>
<path id="Ellipse 1" d="M11.5498 2.48901C11.6929 2.07045 11.9171 1.68419 12.2095 1.35227C12.5019 1.02034 12.8568 0.749265 13.254 0.554506C13.6511 0.359747 14.0828 0.245123 14.5242 0.217178C14.9657 0.189233 15.4084 0.248514 15.8269 0.391637C16.2455 0.53476 16.6317 0.758922 16.9637 1.05132C17.2956 1.34373 17.5667 1.69864 17.7614 2.09581C17.9562 2.49297 18.0708 2.92461 18.0987 3.36607C18.1267 3.80754 18.0674 4.25018 17.9243 4.66873L14.737 3.57887L11.5498 2.48901Z" fill="#FAFAFA"/>
</g>
</svg>
