<svg width="25" height="24" viewBox="0 0 25 24" fill="none" xmlns="http://www.w3.org/2000/svg">
<g id="ion:newspaper-sharp">
<path id="Vector" d="M22.271 5.25H19.8335V19.5C19.8335 19.8978 19.9915 20.2794 20.2728 20.5607C20.5541 20.842 20.9357 21 21.3335 21C21.7313 21 22.1129 20.842 22.3942 20.5607C22.6755 20.2794 22.8335 19.8978 22.8335 19.5V5.8125C22.8335 5.66332 22.7742 5.52024 22.6687 5.41475C22.5633 5.30926 22.4202 5.25 22.271 5.25Z" fill="#FF5050"/>
<path id="Vector_2" d="M20.5437 22.3945C19.9092 22.2205 19.3494 21.8431 18.9502 21.3202C18.5509 20.7973 18.3343 20.1579 18.3335 19.5V2.0625C18.3335 1.91332 18.2742 1.77024 18.1687 1.66475C18.0633 1.55926 17.9202 1.5 17.771 1.5H2.396C2.24681 1.5 2.10374 1.55926 1.99825 1.66475C1.89276 1.77024 1.8335 1.91332 1.8335 2.0625V19.875C1.8335 20.5712 2.11006 21.2389 2.60234 21.7312C3.09462 22.2234 3.7623 22.5 4.4585 22.5H20.5296C20.5429 22.5005 20.5559 22.496 20.5661 22.4875C20.5762 22.4789 20.5829 22.4669 20.5846 22.4537C20.5864 22.4405 20.5831 22.4271 20.5756 22.4162C20.568 22.4052 20.5566 22.3975 20.5437 22.3945ZM4.8335 9.75V5.25H9.3335V9.75H4.8335ZM15.3335 18.75H4.8335V17.25H15.3335V18.75ZM15.3335 15.75H4.8335V14.25H15.3335V15.75ZM15.3335 12.75H4.8335V11.25H15.3335V12.75ZM15.3335 9.75H10.8335V8.25H15.3335V9.75ZM15.3335 6.75H10.8335V5.25H15.3335V6.75Z" fill="#FF5050"/>
</g>
</svg>
