<svg width="65" height="56" viewBox="0 0 65 56" fill="none" xmlns="http://www.w3.org/2000/svg">
<g id="Frame 1">
<path id="Vector 1" d="M4.22461 38L20.2246 14H43.7246L31.7246 27L25.7246 28.5H30.2246H45.7246L1.72461 56L16.7246 36L4.22461 38Z" fill="#FF5050"/>
<path id="Vector 2" d="M0.224609 0L43.7246 14L21.7246 21L0.224609 0Z" fill="#FF5050"/>
<path id="Vector 3" d="M35.7246 26L46.7246 15L64.7246 22L35.7246 26Z" fill="#FF5050"/>
<path id="Ellipse 1" d="M27.6549 5.41157C27.9948 4.41751 28.5272 3.50013 29.2217 2.71181C29.9161 1.9235 30.7591 1.27969 31.7023 0.817134C32.6456 0.354582 33.6707 0.0823497 34.7192 0.0159801C35.7677 -0.0503896 36.819 0.0904035 37.813 0.430321C38.8071 0.770238 39.7245 1.30262 40.5128 1.99708C41.3011 2.69153 41.9449 3.53446 42.4075 4.47772C42.87 5.42099 43.1423 6.44613 43.2086 7.4946C43.275 8.54308 43.1342 9.59436 42.7943 10.5884L35.2246 8L27.6549 5.41157Z" fill="#FF5050"/>
</g>
</svg>
